<svg width="2609" height="1797" xmlns="http://www.w3.org/2000/svg" xmlns:xlink="http://www.w3.org/1999/xlink" xml:space="preserve" overflow="hidden"><g transform="translate(-1587 -514)"><text font-family="Arial,Arial_MSFontService,sans-serif" font-weight="400" font-size="83" transform="matrix(1 0 0 1 2176.28 620)">DP0</text><text font-family="Arial,Arial_MSFontService,sans-serif" font-weight="400" font-size="83" transform="matrix(1 0 0 1 3482.3 620)">DP1</text><rect x="2020.5" y="1163.5" width="531" height="87" stroke="#000000" stroke-width="6.875" stroke-miterlimit="8" fill="#EE822F"/><text font-family="Arial,Arial_MSFontService,sans-serif" font-weight="400" font-size="83" transform="matrix(1 0 0 1 2032.48 816)">Sched Output</text><rect x="2020.5" y="1075.5" width="531" height="88" stroke="#000000" stroke-width="6.875" stroke-miterlimit="8" fill="#EE822F"/><rect x="2020.5" y="987.5" width="531" height="88" stroke="#000000" stroke-width="6.875" stroke-miterlimit="8" fill="#EE822F"/><rect x="2020.5" y="899.5" width="531" height="88" stroke="#000000" stroke-width="6.875" stroke-miterlimit="8" fill="#75BD42"/><text font-family="Arial,Arial_MSFontService,sans-serif" font-weight="400" font-size="83" transform="matrix(1 0 0 1 1847.77 969)">cp0</text><text font-family="Arial,Arial_MSFontService,sans-serif" font-weight="400" font-size="83" transform="matrix(1 0 0 1 1864.73 1061)">dp</text><text font-family="Arial,Arial_MSFontService,sans-serif" font-weight="400" font-size="83" transform="matrix(1 0 0 1 1865.19 1144)">dp</text><text font-family="Arial,Arial_MSFontService,sans-serif" font-weight="400" font-size="83" transform="matrix(1 0 0 1 1861.06 1234)">dp</text><rect x="3248.5" y="1122.5" width="530" height="88" stroke="#000000" stroke-width="6.875" stroke-miterlimit="8" fill="#EE822F"/><text font-family="Arial,Arial_MSFontService,sans-serif" font-weight="400" font-size="83" transform="matrix(1 0 0 1 3259.9 776)">Sched Output</text><rect x="3248.5" y="1034.5" width="530" height="88" stroke="#000000" stroke-width="6.875" stroke-miterlimit="8" fill="#75BD42"/><rect x="3248.5" y="946.5" width="530" height="87.9999" stroke="#000000" stroke-width="6.875" stroke-miterlimit="8" fill="#EE822F"/><rect x="3248.5" y="859.5" width="530" height="87" stroke="#000000" stroke-width="6.875" stroke-miterlimit="8" fill="#EE822F"/><text font-family="Arial,Arial_MSFontService,sans-serif" font-weight="400" font-size="83" transform="matrix(1 0 0 1 3095.81 929)">dp</text><text font-family="Arial,Arial_MSFontService,sans-serif" font-weight="400" font-size="83" transform="matrix(1 0 0 1 3092.15 1020)">dp</text><text font-family="Arial,Arial_MSFontService,sans-serif" font-weight="400" font-size="83" transform="matrix(1 0 0 1 3084.35 1103)">cp1</text><text font-family="Arial,Arial_MSFontService,sans-serif" font-weight="400" font-size="83" transform="matrix(1 0 0 1 3088.48 1194)">dp</text><path d="M1587.5 1453.5 4192.67 1453.5" stroke="#4874CB" stroke-width="4.58333" stroke-miterlimit="8" fill="none" fill-rule="evenodd"/><path d="M2246.79 1320.5 2246.79 1780.02 2242.21 1780.02 2242.21 1320.5ZM2262.52 1753.68 2244.5 1784.57 2226.48 1753.68C2225.84 1752.59 2226.21 1751.18 2227.3 1750.55 2228.4 1749.91 2229.8 1750.28 2230.44 1751.37L2246.48 1778.87 2242.52 1778.87 2258.56 1751.37C2259.2 1750.28 2260.6 1749.91 2261.7 1750.55 2262.79 1751.18 2263.16 1752.59 2262.52 1753.68Z" fill="#4874CB"/><path d="M3521.79 1284.5 3521.79 1744.03 3517.21 1744.03 3517.21 1284.5ZM3537.52 1717.68 3519.5 1748.57 3501.48 1717.68C3500.84 1716.59 3501.21 1715.18 3502.3 1714.55 3503.4 1713.91 3504.8 1714.28 3505.44 1715.37L3521.48 1742.87 3517.52 1742.87 3533.56 1715.37C3534.2 1714.28 3535.6 1713.91 3536.7 1714.55 3537.79 1715.18 3538.16 1716.59 3537.52 1717.68Z" fill="#4874CB"/><rect x="3281.5" y="2171.5" width="530" height="87" stroke="#000000" stroke-width="6.875" stroke-miterlimit="8" fill="#EE822F"/><rect x="3281.5" y="2083.5" width="530" height="88" stroke="#000000" stroke-width="6.875" stroke-miterlimit="8" fill="#EE822F"/><rect x="3281.5" y="1995.5" width="530" height="88" stroke="#000000" stroke-width="6.875" stroke-miterlimit="8" fill="#EE822F"/><rect x="3281.5" y="1907.5" width="530" height="88" stroke="#000000" stroke-width="6.875" stroke-miterlimit="8" fill="#75BD42"/><text font-family="Arial,Arial_MSFontService,sans-serif" font-weight="400" font-size="83" transform="matrix(1 0 0 1 3108.42 1978)">cp1</text><text font-family="Arial,Arial_MSFontService,sans-serif" font-weight="400" font-size="83" transform="matrix(1 0 0 1 3125.37 2069)">dp</text><text font-family="Arial,Arial_MSFontService,sans-serif" font-weight="400" font-size="83" transform="matrix(1 0 0 1 3125.83 2152)">dp</text><text font-family="Arial,Arial_MSFontService,sans-serif" font-weight="400" font-size="83" transform="matrix(1 0 0 1 3121.71 2242)">dp</text><rect x="1983.5" y="2171.5" width="531" height="87" stroke="#000000" stroke-width="6.875" stroke-miterlimit="8" fill="#EE822F"/><rect x="1983.5" y="2083.5" width="531" height="88" stroke="#000000" stroke-width="6.875" stroke-miterlimit="8" fill="#EE822F"/><rect x="1983.5" y="1995.5" width="531" height="88" stroke="#000000" stroke-width="6.875" stroke-miterlimit="8" fill="#EE822F"/><rect x="1983.5" y="1907.5" width="531" height="88" stroke="#000000" stroke-width="6.875" stroke-miterlimit="8" fill="#75BD42"/><text font-family="Arial,Arial_MSFontService,sans-serif" font-weight="400" font-size="83" transform="matrix(1 0 0 1 1810.87 1978)">cp0</text><text font-family="Arial,Arial_MSFontService,sans-serif" font-weight="400" font-size="83" transform="matrix(1 0 0 1 1827.83 2069)">dp</text><text font-family="Arial,Arial_MSFontService,sans-serif" font-weight="400" font-size="83" transform="matrix(1 0 0 1 1828.29 2152)">dp</text><text font-family="Arial,Arial_MSFontService,sans-serif" font-weight="400" font-size="83" transform="matrix(1 0 0 1 1824.17 2242)">dp</text><text font-family="Arial,Arial_MSFontService,sans-serif" font-weight="400" font-size="83" transform="matrix(1 0 0 1 2277 1628)">Reorder</text><text font-family="Arial,Arial_MSFontService,sans-serif" font-weight="400" font-size="83" transform="matrix(1 0 0 1 3552.08 1592)">Reorder</text></g></svg>